<?xml version="1.0" standalone="no"?>
<!DOCTYPE svg PUBLIC "-//W3C//DTD SVG 20010904//EN"
 "http://www.w3.org/TR/2001/REC-SVG-20010904/DTD/svg10.dtd">
<svg version="1.0" xmlns="http://www.w3.org/2000/svg"
 width="225.000000pt" height="225.000000pt" viewBox="0 0 225.000000 225.000000"
 preserveAspectRatio="xMidYMid meet">
<metadata>
Created by potrace 1.14, written by Peter Selinger 2001-2017
</metadata>
<g transform="translate(0.000000,225.000000) scale(0.100000,-0.100000)"
fill="#000000" stroke="none">
<path d="M1255 1960 c-25 -40 233 -147 268 -111 9 10 5 18 -20 39 -64 54 -230
102 -248 72z"/>
<path d="M1296 1331 c-38 -39 -109 -76 -185 -95 -74 -19 -140 -64 -169 -116
-11 -19 -52 -120 -92 -225 -40 -104 -93 -241 -116 -304 -56 -147 -57 -188 -1
-243 55 -55 133 -57 192 -5 18 16 75 152 215 516 104 272 188 496 187 498 -2
1 -16 -10 -31 -26z m-276 -225 c0 -11 -19 -15 -25 -6 -3 5 1 10 9 10 9 0 16
-2 16 -4z m103 -102 c9 -10 -4 -34 -18 -34 -17 0 -28 17 -20 30 7 11 28 13 38
4z m-143 -119 c15 -18 10 -45 -12 -59 -14 -8 -22 -6 -39 10 -17 18 -19 25 -10
43 13 24 43 28 61 6z m-82 -102 c2 -8 -5 -13 -17 -13 -12 0 -21 6 -21 16 0 18
31 15 38 -3z m92 -173 c0 -5 -7 -10 -15 -10 -8 0 -15 5 -15 10 0 6 7 10 15 10
8 0 15 -4 15 -10z"/>
</g>
</svg>
